<?xml version="1.0" encoding="UTF-8"?>
<svg version="1.1" xmlns="http://www.w3.org/2000/svg" width="225" height="225">
<path d="M0 0 C74.25 0 148.5 0 225 0 C225 74.25 225 148.5 225 225 C150.75 225 76.5 225 0 225 C0 150.75 0 76.5 0 0 Z " fill="#FDFDFD" transform="translate(0,0)"/>
<path d="M0 0 C3.77640926 1.45025603 5.75160547 3.62740821 8 7 C8.30078125 10.3984375 8.30078125 10.3984375 8.3125 14.375 C8.32925781 15.68210937 8.34601563 16.98921875 8.36328125 18.3359375 C7.98083832 22.19326516 7.36536316 23.97788816 5 27 C3.68 27.99 2.36 28.98 1 30 C4.63 30 8.26 30 12 30 C11.67 29.67 11.34 29.34 11 29 C10.91224395 26.85441173 10.89304781 24.70595579 10.90234375 22.55859375 C10.90556641 21.25341797 10.90878906 19.94824219 10.91210938 18.60351562 C10.92046599 17.2148431 10.92893095 15.82617123 10.9375 14.4375 C10.94251334 13.04492344 10.94707653 11.65234519 10.95117188 10.25976562 C10.96300566 6.8398013 10.9794912 3.41992156 11 0 C14.06345144 -0.10822792 17.1230601 -0.18741479 20.1875 -0.25 C21.05181641 -0.28351563 21.91613281 -0.31703125 22.80664062 -0.3515625 C27.16620157 -0.41837569 29.36329409 -0.41222114 33.11328125 2.015625 C33.73589844 2.67046875 34.35851562 3.3253125 35 4 C35.33 2.68 35.66 1.36 36 0 C46.56 0 57.12 0 68 0 C68 3.96 68 7.92 68 12 C71.96 12 75.92 12 80 12 C80 8.04 80 4.08 80 0 C81.98 0 83.96 0 86 0 C86 9.57 86 19.14 86 29 C84.02 29 82.04 29 80 29 C80 24.71 80 20.42 80 16 C76.04 16 72.08 16 68 16 C68 20.62 68 25.24 68 30 C66.515 30.495 66.515 30.495 65 31 C71.6 31.33 78.2 31.66 85 32 C85 33.65 85 35.3 85 37 C80.05 37 75.1 37 70 37 C70 39.31 70 41.62 70 44 C74.29 44 78.58 44 83 44 C83 45.32 83 46.64 83 48 C78.71 48 74.42 48 70 48 C70 50.64 70 53.28 70 56 C75.28 56 80.56 56 86 56 C86 57.98 86 59.96 86 62 C78.74 62 71.48 62 64 62 C63.67 55.4 63.34 48.8 63 42 C60.69 41.67 58.38 41.34 56 41 C54.64691687 39.68671343 53.31129922 38.35500919 52 37 C49.17073593 36.51695491 47.75399497 36.48410871 45.3671875 38.1171875 C43.34521754 40.90172899 43.63817316 43.16653694 43.6875 46.5625 C43.69330078 48.29693359 43.69330078 48.29693359 43.69921875 50.06640625 C43.70054123 53.12140629 43.70054123 53.12140629 46 55 C48.21072977 55.24253813 48.21072977 55.24253813 50.625 55.125 C51.44226563 55.10695312 52.25953125 55.08890625 53.1015625 55.0703125 C53.72804688 55.04710937 54.35453125 55.02390625 55 55 C55.33 53.68 55.66 52.36 56 51 C57.98 51 59.96 51 62 51 C61.51999859 55.32001266 60.38496591 57.27322191 57 60 C52.96282138 62.18225871 49.54640869 62.39193178 45 62 C42.53748754 61.16956207 40.34322243 60.14770078 38 59 C38 59.99 38 60.98 38 62 C35.69 62 33.38 62 31 62 C30.505 58.535 30.505 58.535 30 55 C26.04 55 22.08 55 18 55 C17.67 56.98 17.34 58.96 17 61 C15.02 61 13.04 61 11 61 C12 55 12 55 13 49 C8.38 49 3.76 49 -1 49 C-1 52.96 -1 56.92 -1 61 C-2.98 61 -4.96 61 -7 61 C-7 51.1 -7 41.2 -7 31 C-7.99 31 -8.98 31 -10 31 C-10 30.34 -10 29.68 -10 29 C-10.763125 28.9175 -11.52625 28.835 -12.3125 28.75 C-15.57472221 27.83961241 -16.31109792 26.87113354 -18 24 C-19.90078221 18.29765336 -20.56541289 10.31774075 -17.953125 4.78125 C-13.01593775 -1.1433747 -7.20763336 -0.69629878 0 0 Z " fill="#EEEEEE" transform="translate(57,97)"/>
<path d="M0 0 C12.91930651 0 12.91930651 0 19.5 2.0625 C20.22775635 2.28583008 20.9555127 2.50916016 21.70532227 2.73925781 C38.81527087 8.30932191 52.76281021 22.19048457 60.875 38 C63.27585488 42.99814334 64.92950975 47.62120801 65.7109375 53.109375 C65.91376874 55.08328418 65.91376874 55.08328418 67 57 C67.08667255 59.62627133 67.11560135 62.22562483 67.09765625 64.8515625 C67.0962413 65.62559418 67.09482635 66.39962585 67.09336853 67.19711304 C67.08776403 69.67311442 67.07521083 72.14902588 67.0625 74.625 C67.05748558 76.30208203 67.05292257 77.97916547 67.04882812 79.65625 C67.03864336 83.77089597 67.01906894 87.88534715 67 92 C58.09 92 49.18 92 40 92 C39.97421875 89.74542969 39.9484375 87.49085938 39.921875 85.16796875 C39.8832925 82.9469028 39.83818539 80.72605647 39.79248047 78.50512695 C39.76452314 76.97984578 39.74318513 75.45442653 39.72900391 73.92895508 C39.60274643 61.10540407 38.24373859 49.73783598 29 40 C20.08274279 31.49351855 12.13024841 30.21302484 0 29 C0 19.43 0 9.86 0 0 Z " fill="#020202" transform="translate(147,66)"/>
<path d="M0 0 C10.23 0 20.46 0 31 0 C31 3.96 31 7.92 31 12 C34.96 12 38.92 12 43 12 C43 8.04 43 4.08 43 0 C44.98 0 46.96 0 49 0 C49 9.57 49 19.14 49 29 C47.02 29 45.04 29 43 29 C43 24.71 43 20.42 43 16 C39.04 16 35.08 16 31 16 C31 20.62 31 25.24 31 30 C30.01 30.33 29.02 30.66 28 31 C34.6 31.33 41.2 31.66 48 32 C48 33.65 48 35.3 48 37 C43.05 37 38.1 37 33 37 C33 39.31 33 41.62 33 44 C37.29 44 41.58 44 46 44 C46 45.32 46 46.64 46 48 C41.71 48 37.42 48 33 48 C33 50.64 33 53.28 33 56 C38.28 56 43.56 56 49 56 C49 57.98 49 59.96 49 62 C41.74 62 34.48 62 27 62 C26.505 52.1 26.505 52.1 26 42 C22.535 41.505 22.535 41.505 19 41 C17.64691687 39.68671343 16.31129922 38.35500919 15 37 C12.17073593 36.51695491 10.75399497 36.48410871 8.3671875 38.1171875 C6.34521754 40.90172899 6.63817316 43.16653694 6.6875 46.5625 C6.69136719 47.71878906 6.69523437 48.87507813 6.69921875 50.06640625 C6.70054123 53.12140629 6.70054123 53.12140629 9 55 C11.21072977 55.24253813 11.21072977 55.24253813 13.625 55.125 C14.44226563 55.10695312 15.25953125 55.08890625 16.1015625 55.0703125 C16.72804688 55.04710937 17.35453125 55.02390625 18 55 C18.33 53.68 18.66 52.36 19 51 C20.98 51 22.96 51 25 51 C24.51999859 55.32001266 23.38496591 57.27322191 20 60 C15.97893065 62.173551 12.52947482 62.40441739 8 62 C3.7737721 60.17503795 2.01030824 58.08857055 0 54 C-0.79478726 47.87799004 -0.93850038 42.01603785 1.6875 36.375 C3.99270657 34.00749055 6.32118832 31.93469732 9 30 C8.67 29.67 8.34 29.34 8 29 C7.91273777 27.21928754 7.89300959 25.4351686 7.90234375 23.65234375 C7.90556641 22.57275391 7.90878906 21.49316406 7.91210938 20.38085938 C7.92048828 19.24455078 7.92886719 18.10824219 7.9375 16.9375 C7.94201172 15.79732422 7.94652344 14.65714844 7.95117188 13.48242188 C7.96300253 10.65489649 7.9794859 7.8274736 8 5 C5.36 5 2.72 5 0 5 C0 3.35 0 1.7 0 0 Z " fill="#EBEBEB" transform="translate(94,97)"/>
<path d="M0 0 C11.31976366 0 19.70733408 3.09833468 28.01171875 10.88671875 C35.18704937 18.54341327 37.14017576 26.93729129 37.09765625 37.26953125 C37.0962413 37.95053391 37.09482635 38.63153656 37.09336853 39.33317566 C37.08780298 41.49299647 37.07525703 43.65271089 37.0625 45.8125 C37.05748054 47.28320162 37.05291841 48.75390488 37.04882812 50.22460938 C37.03869877 53.81647951 37.01911703 57.40812165 37 61 C30.07 61 23.14 61 16 61 C15.98582031 59.25332031 15.97164062 57.50664062 15.95703125 55.70703125 C15.91012914 53.40882779 15.86188177 51.11065151 15.8125 48.8125 C15.80669922 47.66201172 15.80089844 46.51152344 15.79492188 45.32617188 C15.64672503 38.74838315 15.64672503 38.74838315 13.07421875 32.82421875 C9.12251495 30.24948047 9.12251495 30.24948047 0 29 C0 19.43 0 9.86 0 0 Z " fill="#020202" transform="translate(147,97)"/>
<path d="M0 0 C3.77640926 1.45025603 5.75160547 3.62740821 8 7 C8.30078125 10.3984375 8.30078125 10.3984375 8.3125 14.375 C8.32925781 15.68210937 8.34601563 16.98921875 8.36328125 18.3359375 C7.98485583 22.15274447 7.31545235 23.99156191 5 27 C0.18519816 30.32450603 -4.33466627 30.7310108 -10 30 C-13.90473352 28.69842216 -15.48675248 27.8423153 -17.6328125 24.3203125 C-19.96152469 18.66486861 -19.78212754 13.00816155 -19 7 C-15.13602776 -1.08571968 -7.93667609 -0.7667285 0 0 Z " fill="#0A0A0A" transform="translate(57,97)"/>
<path d="M0 0 C4.5478125 -0.1546875 4.5478125 -0.1546875 9.1875 -0.3125 C10.13391357 -0.35802002 11.08032715 -0.40354004 12.05541992 -0.45043945 C16.50748813 -0.52368758 18.42020897 -0.4387012 22.08203125 2.33203125 C24 5 24 5 24.5 8 C23.95183265 11.28900407 22.91096302 13.29280239 21 16 C21.66 16.66 22.32 17.32 23 18 C23.4140625 20.6015625 23.4140625 20.6015625 23.625 23.625 C23.69976562 24.62789062 23.77453125 25.63078125 23.8515625 26.6640625 C23.92503906 27.82035156 23.92503906 27.82035156 24 29 C22.02 29 20.04 29 18 29 C17.34 25.7 16.68 22.4 16 19 C12.7 18.67 9.4 18.34 6 18 C6 21.63 6 25.26 6 29 C4.02 29 2.04 29 0 29 C0 19.43 0 9.86 0 0 Z " fill="#101010" transform="translate(68,97)"/>
<path d="M0 0 C2.31 0 4.62 0 7 0 C10.3 5.94 13.6 11.88 17 18 C17.33 12.06 17.66 6.12 18 0 C19.98 0 21.96 0 24 0 C24 9.57 24 19.14 24 29 C21.69 29 19.38 29 17 29 C13.7 23.06 10.4 17.12 7 11 C6.67 16.94 6.34 22.88 6 29 C4.02 29 2.04 29 0 29 C0 19.43 0 9.86 0 0 Z " fill="#131313" transform="translate(11,97)"/>
<path d="M0 0 C2.64 0 5.28 0 8 0 C9.28556666 3.80731355 10.56721183 7.61592191 11.84521484 11.42578125 C12.28065756 12.72204323 12.71717592 14.01794438 13.15478516 15.31347656 C13.78309327 17.17418041 14.40723259 19.03629031 15.03125 20.8984375 C15.40830078 22.01911621 15.78535156 23.13979492 16.17382812 24.29443359 C17 27 17 27 17 29 C15.02 29 13.04 29 11 29 C10.67 27.02 10.34 25.04 10 23 C6.04 23 2.08 23 -2 23 C-2.33 24.98 -2.66 26.96 -3 29 C-4.98 29 -6.96 29 -9 29 C-8.34232996 23.86854979 -6.83120578 19.32682775 -5.0625 14.5 C-4.53210468 13.03141151 -4.00214861 11.56266429 -3.47265625 10.09375 C-3.2214502 9.40023437 -2.97024414 8.70671875 -2.71142578 7.9921875 C-1.76503057 5.34202109 -0.87588253 2.67419207 0 0 Z " fill="#0D0D0D" transform="translate(77,129)"/>
<path d="M0 0 C1.98 0 3.96 0 6 0 C6 3.96 6 7.92 6 12 C9.96 12 13.92 12 18 12 C18 8.04 18 4.08 18 0 C19.98 0 21.96 0 24 0 C24 9.57 24 19.14 24 29 C22.02 29 20.04 29 18 29 C18 24.71 18 20.42 18 16 C14.04 16 10.08 16 6 16 C6 20.29 6 24.58 6 29 C4.02 29 2.04 29 0 29 C0 19.43 0 9.86 0 0 Z " fill="#131313" transform="translate(119,97)"/>
<path d="M0 0 C1.98 0 3.96 0 6 0 C6 3.63 6 7.26 6 11 C9.63 11 13.26 11 17 11 C17 7.37 17 3.74 17 0 C18.98 0 20.96 0 23 0 C23 9.57 23 19.14 23 29 C21.35 29 19.7 29 18 29 C18 24.71 18 20.42 18 16 C14.04 16 10.08 16 6 16 C6 20.29 6 24.58 6 29 C4.02 29 2.04 29 0 29 C0 19.43 0 9.86 0 0 Z " fill="#101010" transform="translate(95,65)"/>
<path d="M0 0 C8.11111111 0 8.11111111 0 12 3 C14.23413013 6.35119519 14.23847762 7.4177755 14.1953125 11.32421875 C14.18564453 12.86625977 14.18564453 12.86625977 14.17578125 14.43945312 C14.15902344 15.51130859 14.14226562 16.58316406 14.125 17.6875 C14.11597656 18.77095703 14.10695312 19.85441406 14.09765625 20.97070312 C14.07407452 23.64722948 14.03820336 26.32364241 14 29 C9.38 29 4.76 29 0 29 C0 19.43 0 9.86 0 0 Z " fill="#060606" transform="translate(147,129)"/>
<path d="M0 0 C2.71009736 1.30925181 4.91966692 2.81948091 7 5 C7.9375 7.8125 7.9375 7.8125 8 10 C5.25 10.25 5.25 10.25 2 10 C0.64631404 8.68733482 -0.68799596 7.35432675 -2 6 C-4.82926407 5.51695491 -6.24600503 5.48410871 -8.6328125 7.1171875 C-10.65478246 9.90172899 -10.36182684 12.16653694 -10.3125 15.5625 C-10.30863281 16.71878906 -10.30476563 17.87507813 -10.30078125 19.06640625 C-10.29945877 22.12140629 -10.29945877 22.12140629 -8 24 C-5.78927023 24.24253813 -5.78927023 24.24253813 -3.375 24.125 C-2.55773437 24.10695312 -1.74046875 24.08890625 -0.8984375 24.0703125 C0.04128906 24.03550781 0.04128906 24.03550781 1 24 C1.33 22.68 1.66 21.36 2 20 C3.98 20 5.96 20 8 20 C7.51999859 24.32001266 6.38496591 26.27322191 3 29 C-1.02106935 31.173551 -4.47052518 31.40441739 -9 31 C-13.2262279 29.17503795 -14.98969176 27.08857055 -17 23 C-17.73261693 17.3568696 -18.4321215 10.37785613 -15.375 5.3125 C-10.72936715 0.78912064 -6.48454872 -0.9101121 0 0 Z " fill="#0E0E0E" transform="translate(111,128)"/>
<path d="M0 0 C6.6 0 13.2 0 20 0 C20 1.65 20 3.3 20 5 C15.05 5 10.1 5 5 5 C5 7.31 5 9.62 5 12 C9.29 12 13.58 12 18 12 C18 13.32 18 14.64 18 16 C13.71 16 9.42 16 5 16 C5 18.64 5 21.28 5 24 C9.95 24 14.9 24 20 24 C20 25.65 20 27.3 20 29 C13.4 29 6.8 29 0 29 C0 19.43 0 9.86 0 0 Z " fill="#040404" transform="translate(122,129)"/>
<path d="M0 0 C6.6 0 13.2 0 20 0 C20 1.65 20 3.3 20 5 C15.05 5 10.1 5 5 5 C5 6.98 5 8.96 5 11 C9.29 11 13.58 11 18 11 C18 12.32 18 13.64 18 15 C13.71 15 9.42 15 5 15 C5 17.97 5 20.94 5 24 C9.95 24 14.9 24 20 24 C20 25.32 20 26.64 20 28 C13.4 28 6.8 28 0 28 C0 18.76 0 9.52 0 0 Z " fill="#030303" transform="translate(122,66)"/>
<path d="M0 0 C2.93539448 0.51369403 4.36438337 1.38098028 6.5 3.4375 C6.5 4.0975 6.5 4.7575 6.5 5.4375 C10.64093698 5.64720559 10.64093698 5.64720559 14.5 4.4375 C14.5 8.3975 14.5 12.3575 14.5 16.4375 C13.84 16.7675 13.18 17.0975 12.5 17.4375 C12.5 16.7775 12.5 16.1175 12.5 15.4375 C10.52 15.4375 8.54 15.4375 6.5 15.4375 C6.37625 16.076875 6.2525 16.71625 6.125 17.375 C5.91875 18.055625 5.7125 18.73625 5.5 19.4375 C2.45016004 20.96241998 -0.1423369 20.67312548 -3.5 20.4375 C-5.1953125 19.32421875 -5.1953125 19.32421875 -6.5 17.4375 C-6.93359375 14.44140625 -6.93359375 14.44140625 -6.9375 11 C-6.95683594 9.86691406 -6.97617188 8.73382813 -6.99609375 7.56640625 C-6.29907477 3.17024717 -4.46955885 0.7821728 0 0 Z " fill="#F4F4F4" transform="translate(106.5,132.5625)"/>
<path d="M0 0 C6.6 0 13.2 0 20 0 C20 1.65 20 3.3 20 5 C15.05 5 10.1 5 5 5 C5 7.31 5 9.62 5 12 C9.29 12 13.58 12 18 12 C18 13.65 18 15.3 18 17 C13.71 17 9.42 17 5 17 C5 20.96 5 24.92 5 29 C3.35 29 1.7 29 0 29 C0 19.43 0 9.86 0 0 Z " fill="#050505" transform="translate(51,129)"/>
<path d="M0 0 C3.96 0 7.92 0 12 0 C12.495 6.93 12.495 6.93 13 14 C15.475 14.495 15.475 14.495 18 15 C18 17.31 18 19.62 18 22 C13.05 22 8.1 22 3 22 C3 23.65 3 25.3 3 27 C7.29 27 11.58 27 16 27 C16 28.98 16 30.96 16 33 C11.71 33 7.42 33 3 33 C3 34.98 3 36.96 3 39 C7.62 39 12.24 39 17 39 C17 39.33 17 39.66 17 40 C12.05 40 7.1 40 2 40 C2 37.36 2 34.72 2 32 C6.29 32 10.58 32 15 32 C15 30.68 15 29.36 15 28 C10.71 28 6.42 28 2 28 C2 25.69 2 23.38 2 21 C6.95 21 11.9 21 17 21 C17 19.35 17 17.7 17 16 C10.4 16 3.8 16 -3 16 C-3.33 15.34 -3.66 14.68 -4 14 C-2.68 14 -1.36 14 0 14 C0 9.38 0 4.76 0 0 Z " fill="#DEDEDE" transform="translate(125,113)"/>
<path d="M0 0 C3.51812928 0.18108018 5.59613424 0.77382497 8.0625 3.4375 C9.67561743 8.27685228 9.61721929 12.07591629 7.6875 16.8125 C6.0625 19.4375 6.0625 19.4375 4.0625 20.4375 C0.05563644 20.88270706 -2.08452112 21.07176635 -5.375 18.625 C-7.6347659 14.01507756 -7.77268216 9.48621376 -6.9375 4.4375 C-4.8627537 0.69283594 -4.46387552 0.49598617 0 0 Z " fill="#F4F4F4" transform="translate(50.9375,101.5625)"/>
<path d="M0 0 C7.59 0 15.18 0 23 0 C23 1.65 23 3.3 23 5 C20.03 5 17.06 5 14 5 C14 12.92 14 20.84 14 29 C12.02 29 10.04 29 8 29 C8 21.08 8 13.16 8 5 C5.36 5 2.72 5 0 5 C0 3.35 0 1.7 0 0 Z " fill="#0F0F0F" transform="translate(94,97)"/>
<path d="M0 0 C7.59 0 15.18 0 23 0 C23 1.65 23 3.3 23 5 C20.36 5 17.72 5 15 5 C15 12.59 15 20.18 15 28 C13.02 28 11.04 28 9 28 C9 20.41 9 12.82 9 5 C6.03 5 3.06 5 0 5 C0 3.35 0 1.7 0 0 Z " fill="#0E0E0E" transform="translate(70,66)"/>
<path d="M0 0 C9.73009941 5.95328451 16.01695309 13.87467389 19.54150391 24.65649414 C20.18975297 27.96988219 20.12239861 31.24798702 20.09765625 34.609375 C20.0962413 35.33618469 20.09482635 36.06299438 20.09336853 36.81182861 C20.08778792 39.12459494 20.07523904 41.43726312 20.0625 43.75 C20.05748249 45.32161318 20.05292002 46.89322789 20.04882812 48.46484375 C20.03782485 52.30993343 20.02057361 56.1549501 20 60 C19.01 60 18.02 60 17 60 C16.98541748 59.11852295 16.97083496 58.2370459 16.95581055 57.32885742 C16.89413943 54.0053724 16.81988167 50.68263282 16.73754883 47.35961914 C16.70463914 45.93133851 16.67650589 44.50293841 16.65356445 43.07446289 C16.45255344 30.88122064 15.94990633 19.19179569 7 10 C1.12345214 4.7445507 -5.11567538 1.19459464 -13 0 C-8.31271056 -2.77024072 -4.92616948 -1.92625858 0 0 Z " fill="#C7C7C7" transform="translate(167,98)"/>
<path d="M0 0 C6.04212797 3.6968283 13.21467988 9.24212187 15.78125 16.08203125 C15.8534375 16.71496094 15.925625 17.34789063 16 18 C15.34 18.66 14.68 19.32 14 20 C13.64808594 19.41992188 13.29617187 18.83984375 12.93359375 18.2421875 C6.90827264 8.70865071 0.04236031 2.96955763 -11.0625 0.25 C-11.701875 0.1675 -12.34125 0.085 -13 0 C-8.31271056 -2.77024072 -4.92616948 -1.92625858 0 0 Z " fill="#DDDDDD" transform="translate(167,98)"/>
<path d="M0 0 C1.62463842 -0.05395478 3.24978541 -0.09277195 4.875 -0.125 C5.77992187 -0.14820312 6.68484375 -0.17140625 7.6171875 -0.1953125 C10 0 10 0 12 2 C12.125 4.625 12.125 4.625 12 7 C9.47524538 8.26237731 7.68799534 8.09856404 4.875 8.0625 C3.96492188 8.05347656 3.05484375 8.04445313 2.1171875 8.03515625 C1.41851562 8.02355469 0.71984375 8.01195313 0 8 C0 5.36 0 2.72 0 0 Z " fill="#E7E7E7" transform="translate(74,102)"/>
<path d="M0 0 C4.55555556 0.55555556 4.55555556 0.55555556 6 2 C6.1875 4.4375 6.1875 4.4375 6 7 C5.34 7.66 4.68 8.32 4 9 C-0.55555556 8.44444444 -0.55555556 8.44444444 -2 7 C-2.1875 4.5625 -2.1875 4.5625 -2 2 C-1.34 1.34 -0.68 0.68 0 0 Z " fill="#929292" transform="translate(38,150)"/>
<path d="M0 0 C4.67230248 -0.32222776 7.13884627 -0.43057686 11.375 1.6875 C14.07456145 4.06568509 15.04872818 5.57542144 16 9 C15.01 9 14.02 9 13 9 C12.32517578 8.04867187 12.32517578 8.04867187 11.63671875 7.078125 C9.52504545 4.39695508 8.1313159 4.26721806 4.8125 3.75 C3.91144531 3.60046875 3.01039063 3.4509375 2.08203125 3.296875 C1.05142578 3.14992187 1.05142578 3.14992187 0 3 C0 2.01 0 1.02 0 0 Z " fill="#D1D1D1" transform="translate(147,126)"/>
<path d="M0 0 C0.66 0 1.32 0 2 0 C3.31626692 3.61973402 4 6.09567131 4 10 C2.02 10 0.04 10 -2 10 C-1.125 2.25 -1.125 2.25 0 0 Z " fill="#E4E4E4" transform="translate(80,137)"/>
<path d="M0 0 C0.33 0 0.66 0 1 0 C1.04898438 0.80824219 1.09796875 1.61648437 1.1484375 2.44921875 C1.22320312 3.51785156 1.29796875 4.58648437 1.375 5.6875 C1.44460937 6.74324219 1.51421875 7.79898438 1.5859375 8.88671875 C1.98760089 11.90677269 2.74069019 14.24078054 4 17 C3.34 17 2.68 17 2 17 C2 17.99 2 18.98 2 20 C-0.31 20 -2.62 20 -5 20 C-5 19.67 -5 19.34 -5 19 C-3.02 19 -1.04 19 1 19 C0.49339844 17.72769531 0.49339844 17.72769531 -0.0234375 16.4296875 C-1.0940804 12.66958963 -1.01997339 9.99573927 -0.625 6.125 C-0.45871094 4.39636719 -0.45871094 4.39636719 -0.2890625 2.6328125 C-0.19367188 1.76398438 -0.09828125 0.89515625 0 0 Z " fill="#D0D0D0" transform="translate(93,139)"/>
</svg>
